<svg id="Layer_1" data-name="Layer 1" xmlns="http://www.w3.org/2000/svg" xmlns:xlink="http://www.w3.org/1999/xlink" width="1919.85" height="1304.79" viewBox="0 0 1919.85 1304.79"><defs><style>.cls-1{fill:none;}.cls-2{opacity:0.2;fill:url(#linear-gradient);}.cls-11,.cls-3,.cls-4,.cls-9{opacity:0.3;}.cls-3{fill:url(#linear-gradient-2);}.cls-4{fill:url(#linear-gradient-3);}.cls-5{fill:url(#linear-gradient-4);}.cls-6{clip-path:url(#clip-path);}.cls-7{opacity:0.7;fill:url(#linear-gradient-5);}.cls-8{font-size:12px;font-family:MyriadPro-Regular, Myriad Pro;}.cls-9{fill:#fff;}.cls-10{opacity:0.05;fill:url(#linear-gradient-6);}.cls-11{fill:url(#linear-gradient-7);}.cls-12{opacity:0.6;fill:url(#linear-gradient-8);}.cls-13{opacity:0.5;fill:url(#linear-gradient-9);}</style><linearGradient id="linear-gradient" x1="718.06" y1="1229" x2="1738.25" y2="1009.36" gradientUnits="userSpaceOnUse"><stop offset="0" stop-color="#e7fff8"/><stop offset="0.59" stop-color="#7be3fc"/><stop offset="1" stop-color="#2ed0ff"/></linearGradient><linearGradient id="linear-gradient-2" x1="537.44" y1="1491.72" x2="2655.02" y2="1035.81" xlink:href="#linear-gradient"/><linearGradient id="linear-gradient-3" x1="-490.46" y1="1160.23" x2="2001.54" y2="-359.77" xlink:href="#linear-gradient"/><linearGradient id="linear-gradient-4" x1="237.43" y1="-87.47" x2="5277.48" y2="3737.14" gradientUnits="userSpaceOnUse"><stop offset="0" stop-color="#e7fff8"/><stop offset="1" stop-color="#2ed0ff"/></linearGradient><clipPath id="clip-path"><rect class="cls-1" x="-43.3" y="-210.36" width="1966.97" height="1278.99"/></clipPath><linearGradient id="linear-gradient-5" x1="1135.09" y1="-79.85" x2="2691.49" y2="2144.28" gradientUnits="userSpaceOnUse"><stop offset="0" stop-color="#a8f3f8"/><stop offset="1" stop-color="#6ab2ff"/></linearGradient><linearGradient id="linear-gradient-6" x1="91.32" y1="530.01" x2="635" y2="530.01" gradientUnits="userSpaceOnUse"><stop offset="0" stop-color="#00b1ed"/><stop offset="1" stop-color="#0099bf"/></linearGradient><linearGradient id="linear-gradient-7" x1="205.15" y1="97.86" x2="-246.5" y2="546.76" xlink:href="#linear-gradient-5"/><linearGradient id="linear-gradient-8" x1="291.43" y1="-42.57" x2="193.43" y2="-194.57" xlink:href="#linear-gradient-4"/><linearGradient id="linear-gradient-9" x1="2142.22" y1="-98.61" x2="1184.22" y2="545.39" xlink:href="#linear-gradient-5"/></defs><title>Artboard 1</title><path class="cls-2" d="M1759.26,1107c-529.7,329.48-1067.48,0-1067.48,0q40.5-11.49,83.86-28C1295.75,880.87,1597.49,984.11,1759.26,1107Z"/><path class="cls-3" d="M775.64,1079s812.07-63.32,1219.28,532.56l-75.07-790.65S842.28,909.37,775.64,1079Z"/><path class="cls-4" d="M0,1050.5s579.61,353.64,1068.24-306.23,962.69-153.69,962.69-153.69l-87-881.21-2007.2,222Z"/><path class="cls-5" d="M1920,3.63l265,993c-4.19-11-239.3,219.78-425.74,110.32-509.82-299.32-973.53-13.07-1085.66,18.74C150.08,1274.46,0,803.24,0,803.24V3.63Z"/><g class="cls-6"><path class="cls-7" d="M562.53-255.26C483.94,43,984.58-19.11,950.06,251c-23.2,181.49-142.45,180.8-144.27,273.63-2.4,122.5,84.23,118,156.55,219s307.6,274.78,617.34,243.39S1968,814.54,2017.12,740.85s128.27-609.94,40.94-618.13-371.15,186.94-521.25,55.94S1399-103.79,1243.43-120.17,937.78,2.64,875-255.26,491.57-387.62,562.53-255.26Z"/></g><text class="cls-8" transform="translate(1206 282.63)"> </text><path class="cls-9" d="M1181.91,176.13s-4-48.5-81-44S876.5,121.69,842.5,99.19s-53.5,0-63.5,26.5-47.5,13.5-89.5,22-42,26-42,26C668.92,173.69,746.35,177.8,1181.91,176.13Z"/><path class="cls-10" d="M635,568.52s-3.71-45-75.18-40.84-256-7.43-287.52-28.31-49.65,0-58.93,24.6-44.09,12.52-83.07,20.41-39,24.13-39,24.13C111.2,568.51,230.75,570.07,635,568.52Z"/><path class="cls-11" d="M545.78,3.63S529,199.3,320.76,111.41C29.89-11.37,135,262.63-8.92,550.5L0,3.63Z"/><ellipse class="cls-12" cx="318.87" rx="173.24" ry="51.75"/><path class="cls-13" d="M1596.94,3.63s48.58,69,162.32,69S1920.15,128.25,1920,315.09l-.15-311.46Z"/></svg>