<svg xmlns="http://www.w3.org/2000/svg" viewBox="0 0 21 28" width="21" height="28">
	<style>
		tspan { white-space:pre }
		.shp0 { fill: #000000 } 
		.shp1 { fill: #252525;stroke: #959595;stroke-width: 2 } 
		.shp2 { fill: #ffffff } 
		.txt3 { font-size: 15px;line-height: 25px;fill: #959595;font-weight: 400;font-family: "PTSans-Regular", "PT Sans" } 
		.txt4 { font-size: 15px;line-height: 25px;fill: #000000;font-family: "Bebas" } 
		.shp5 { fill: #acacac } 
		.txt6 { font-size: 25px;line-height: 25px;fill: #ffffff;font-family: "Akzidenz Grotesk BQ" } 
		.txt7 { font-size: 15px;line-height: 25px;fill: #000000;font-weight: 400;font-family: "PTSans-Regular", "PT Sans" } 
		.txt8 { font-size: 15px;line-height: 25px;fill: #4d4d4d;font-weight: 400;font-family: "PTSans-Regular", "PT Sans" } 
		.txt9 { font-size: 50px;line-height: 25px;fill: #000000;font-family: "Akzidenz Grotesk BQ" } 
	</style>
	<g >
		<g >
			<path class="shp0" d="M435 99L875 99L875 524L435 524L435 99Z" />
			<path class="shp0" d="M435 99L1118 99L1118 574L435 574L435 99Z" />
			<path class="shp1" d="M495 199L869 199L869 249L495 249L495 199ZM495 274L869 274L869 324L495 324L495 274ZM495 349L869 349L869 449L495 449L495 349Z" />
			<g >
				<path class="shp2" d="M495 474L650 474L650 524L495 524L495 474Z" />
				<text style="transform: matrix(1,0,0,1,512.5,229.75)" >
					<tspan x="0" y="0" class="txt3">Name</tspan>
				</text>
				<text style="transform: matrix(1,0,0,1,512.5,303.75)" >
					<tspan x="0" y="0" class="txt3">E-mail or phone number</tspan>
				</text>
				<text style="transform: matrix(1,0,0,1,512.5,374.75)" >
					<tspan x="0" y="0" class="txt3">Your message</tspan>
				</text>
				<text style="transform: matrix(1,0,0,1,516.5,505.75)" >
					<tspan x="0" y="0" class="txt4" dx="0 2 2 2 2 2 2 2 2 2 2 2" >Send message</tspan>
				</text>
			</g>
			<g >
				<path class="shp5" d="M-5 99L435 99L435 524L-5 524L-5 99Z" />
				<path class="shp5" d="M-248 99L435 99L435 574L-248 574L-248 99Z" />
			</g>
			<text style="transform: matrix(1,0,0,1,494.5,170.75)" >
				<tspan x="0" y="0" class="txt6" dx="0 3 3 3 3 3 3 3 3 3 3 3" >Get in touch</tspan>
			</text>
		</g>
		<text style="transform: matrix(1,0,0,1,30.5,18.75)" >
			<tspan x="0" y="0" class="txt7">45-35 #B 39th St, Sunnyside, NY 11104</tspan>
		</text>
		<text style="transform: matrix(1,0,0,1,-1.5,644.125)" >
			<tspan x="0" y="0" class="txt8">© PrimeOne Catering 2014. Terms &amp; Conditions</tspan>
		</text>
		<text style="transform: matrix(1,0,0,1,475.5,16.75)" >
			<tspan x="0" y="0" class="txt7">contact@primeone.com</tspan>
		</text>
		<text style="transform: matrix(1,0,0,1,24.5,67.75)" >
			<tspan x="0" y="0" class="txt7">(718) 777-7777</tspan>
		</text>
		<path class="shp0" d="M457.9 10.76L466.63 3.52L466.63 20.96L457.9 10.76ZM440.44 2.6L466.56 2.6L453.5 13.36L440.44 2.6ZM453.5 14.42L457.33 11.24L465.65 20.97L441.35 20.97L449.67 11.34L453.5 14.42ZM449.06 10.76L440.34 3.52L440.34 20.96L449.06 10.76Z" />
		<path class="shp0" d="M2.62 51.63C1.6 52.39 -1.28 56.51 4.11 65.84C9.78 75.67 15.18 75.26 16.27 74.59L12.44 68.15C11.54 68.68 10.77 67.81 9.37 65.91C9.34 65.89 6.62 61.33 6.61 61.27C6.05 60.04 5.6 58.79 6.54 58.23L2.62 51.63ZM18.6 73.24C19.02 72.99 19.12 72.47 18.89 72.09L18.89 72.09C18.89 72.09 15.9 67.07 15.9 67.06C15.67 66.67 15.16 66.54 14.76 66.77L12.93 67.85L16.77 74.31C16.77 74.31 18.6 73.24 18.6 73.24L18.6 73.24ZM8.87 56.86C9.29 56.61 9.39 56.1 9.17 55.72L9.17 55.72C9.17 55.72 6.1 50.55 6.1 50.55C5.86 50.15 5.35 50.03 4.95 50.26L3.12 51.34L7.04 57.94C7.04 57.94 8.87 56.87 8.87 56.87L8.87 56.86Z" />
		<g >
		</g>
		<path fill-rule="evenodd" class="shp0" d="M9.94 0C15.87 0 19.85 4.27 19.85 9.53C19.85 14.79 9.87 27 9.87 27C9.87 27 0.01 14.82 0.01 9.55C0.01 4.29 4.01 0 9.94 0ZM6.64 7.94C6.64 9.7 8.12 11.12 9.94 11.12C11.77 11.12 13.25 9.7 13.25 7.94C13.25 6.19 11.77 4.76 9.94 4.76C8.12 4.76 6.64 6.19 6.64 7.94Z" />
		<text style="transform: matrix(1,0,0,1,0.5,-32.25)" >
			<tspan x="0" y="0" class="txt9" dx="0 5 5 5 5 5 5 5 5" >Say hello</tspan>
		</text>
	</g>
	<g >
	</g>
</svg>